# xmcd
#
# Track frame offsets:
#	150
#	12664
#	28747
#	40245
#	52754
#	66615
#	81608
#	96195
#	107852
#	121617
#	137129
#	151077
#	162080
#	171935
#	185316
#	198401
#	211637
#	223999
#	236516
#	248721
#	262248
#	277399
#
# Disc length: 3887 seconds
#
# Revision: 1
# Processed by: cddbd v1.5.2PL0 Copyright (c) Steve Scherf et al.
# Submitted via: audiograbber 1.83.01
#
DISCID=480f2d16
DTITLE=Benny Goodman - Life Goes To A Party CD3
DYEAR=2005
DGENRE=Instrumental
TTITLE0=Sugar Foot Stomp
TTITLE1=I Can't Give You Anything But Love
TTITLE2=Loch Lomond
TTITLE3=Camel Hop
TTITLE4=Life Goes To A Party
TTITLE5=Don't Be That Way
TTITLE6=One O'clock Jump
TTITLE7=Ti-Pi-Tin
TTITLE8=The Blue Room
TTITLE9=Sweet Sue, Just You
TTITLE10=Big John Special
TTITLE11=My Melacholy Baby
TTITLE12=Margie
TTITLE13=Topsy
TTITLE14=Smoke House
TTITLE15=It Had To Be You
TTITLE16=Louise
TTITLE17=Whispering
TTITLE18=Bach Goes To Town
TTITLE19=Undecided
TTITLE20=Blue Lou
TTITLE21=And The Angels Sing
EXTD=CD 3 - 4
EXTT0=
EXTT1=
EXTT2=
EXTT3=
EXTT4=
EXTT5=
EXTT6=
EXTT7=
EXTT8=
EXTT9=
EXTT10=
EXTT11=
EXTT12=
EXTT13=
EXTT14=
EXTT15=
EXTT16=
EXTT17=
EXTT18=
EXTT19=
EXTT20=
EXTT21=
PLAYORDER=
